<?xml version="1.0" encoding="UTF-8"?>
<svg id="Layer_2" data-name="Layer 2" xmlns="http://www.w3.org/2000/svg" viewBox="0 0 67.73 90.03">
  <defs>
    <style>
      .cls-1 {
        fill: #A03030;
      }

      .cls-2 {
        fill: #A03131;
      }

      .cls-3 {
        fill: #D25A5A;
      }

      .cls-4 {
        fill: #D25858;
      }

      .cls-5 {
        fill: #E89090;
      }

      .cls-6 {
        fill: #E89191;
      }

      .cls-7 {
        fill: #D25959;
      }

      .cls-8 {
        fill: #A13131;
      }
    </style>
  </defs>
  <g id="Layer_1-2" data-name="Layer 1">
    <g>
      <path class="cls-5" d="M33.04.13l-.22.29c.49.89,1.29,1.66,2.41,2.29l.51.13c.92-.36,1.88-.65,2.86-.89l.28-.33-.34.13c-.04,10.91-.04,21.83-.03,32.75l.37.17-.34-.23c-1.47.46-2.92.93-4.37,1.43l-.22.3-.2-.29c-.43-.22-3.9-1.39-4.34-1.43-.14-.02-.28.13-.38.23l-.32-.23c-5.84,1.74-11.76,3.69-17.75,5.87l-.92.49-.38.46-.23,2.63-4.13,1.44-.19.37-.03.29c9.44,3.05,18.89,6.1,28.33,9.14l.35-.18c.39.21.98.17,1.75-.14l32.02-10.39.17-.35-28.62-9.41-.06-33.14c-.15-.08-.36-.09-.51-.16l-.64-.07c-1.49.31-2.1.1-1.82-.64l-.28-.24c-1.12-.31-1.45-.57-2.74-.27Z"/>
      <path class="cls-8" d="M4.76,80.64l.37-.09.18-25.93c1.48.33,2.97.73,4.46,1.18l.47-.05c6.26,1.99,12.44,4.14,18.77,6l.02,26.57.18.27c1.25.17,3.65,1.43,4.75,1.43l.32-.13c0-11.59-.05-23.19-.13-34.79l-.37-.17-28.65-9.25.36-.32c-.06-10.86-.12-21.71-.18-32.56l-.37-.17c.04-.1.09-.26,0-.3-.61-.25-3.8-1.35-4.31-1.4l-.62.06v67.8s.29.46.29.46c1.48.35,2.96,1.1,4.46,1.37Z"/>
      <path class="cls-4" d="M33.77,54.94l.18,35.09c.49,0,4.87-1.39,4.93-1.59l.08-26.57c6.06-2.01,12.08-4.1,18.17-6.05.26-.08.61-.03.73-.06l.38.07c1.26-.51,2.78-1.04,4.18-1.2,0,8.62,0,17.24.01,25.85l.35.17c.27,0,4.87-1.39,4.93-1.59v-35s-32.37,10.5-32.37,10.5l-1.58.38Z"/>
      <path class="cls-3" d="M10.23,55.76c-1.75-.56-3.48-1.18-5.29-1.63l-.18,26.52s.16.19.35.08l4.76-1.67c.24-7.57-.35-15.27,0-22.83.01-.26-.19-.55.37-.47Z"/>
      <path class="cls-2" d="M57.86,55.76v23.3c.06.19,4.61,1.59,4.93,1.59v-26.52c-1.51.37-3.03.86-4.52,1.33-.25.08-.38.29-.41.3Z"/>
      <path class="cls-6" d="M.01,11.01l4.93,1.63c10.32-2.92,20.42-6.26,30.3-9.93.16-.7-.97-.91-1.46-1.43-.27-.28-.5-.83-.73-1.16-8.1,2.7-16.2,5.41-24.33,8.05C5.82,9.12,2.8,9.93.01,11.01Z"/>
      <path class="cls-6" d="M38.52,1.36c-.81-.36-1.85-.71-2.74-.95-.79,1.58,1.39,1.41,2.74.95Z"/>
      <path class="cls-7" d="M35.23,2.72c-10.1,3.3-20.19,6.63-30.3,9.93l.18,33.05,4.66-1.63c.06-1.09.27-2.18.27-3.27l.24-.38c-.04-5.41-.07-10.9-.08-16.47,6.4-1.94,12.67-4.08,18.83-6.4l.48.04c1.37-.41,2.73-.8,4.08-1.18v19.6s.37.17.37.17c1.01,0,3.69-1.42,4.93-1.5V1.63c-1.26.19-2.47.7-3.65,1.09Z"/>
      <path class="cls-1" d="M29.03,17.54v17.14c1.09.01,3.94,1.5,4.93,1.5V15.91c-1.67.49-3.29,1.11-4.93,1.63Z"/>
    </g>
  </g>
</svg>